<?xml version="1.0" standalone="no"?><!DOCTYPE svg PUBLIC "-//W3C//DTD SVG 1.1//EN" "http://www.w3.org/Graphics/SVG/1.1/DTD/svg11.dtd"><svg t="1688555661156" class="icon" viewBox="0 0 1024 1024" version="1.1" xmlns="http://www.w3.org/2000/svg" p-id="32421" xmlns:xlink="http://www.w3.org/1999/xlink" width="128" height="128"><path d="M991.688101 63.979207H32v191.93762h63.979207v383.875241a399.870042 399.870042 0 0 0 415.864844 383.87524 399.870042 399.870042 0 0 0 415.864844-383.87524V255.916827h63.979206z m-127.958413 575.812861a335.890835 335.890835 0 0 1-351.885637 319.896033A335.890835 335.890835 0 0 1 159.958414 639.792068V255.916827h703.771274z m63.979207-447.854448H95.979207V127.958414h831.729688z" p-id="32422"></path><path d="M479.854447 319.896034h63.979207v255.916827H479.854447z" p-id="32423"></path><path d="M511.844051 735.760878m-95.96881 0a95.96881 95.96881 0 1 0 191.93762 0 95.96881 95.96881 0 1 0-191.93762 0Z" p-id="32424"></path></svg>