<?xml version="1.0" standalone="no"?><!DOCTYPE svg PUBLIC "-//W3C//DTD SVG 1.1//EN" "http://www.w3.org/Graphics/SVG/1.1/DTD/svg11.dtd"><svg t="1688454683845" class="icon" viewBox="0 0 1024 1024" version="1.1" xmlns="http://www.w3.org/2000/svg" p-id="3029" xmlns:xlink="http://www.w3.org/1999/xlink" width="128" height="128"><path d="M885.028571 885.028571h-36.571428V138.971429c0-73.142857-58.514286-131.657143-131.657143-131.657143S585.142857 65.828571 585.142857 138.971429v746.057142H424.228571c-29.257143 0-58.514286 29.257143-58.514285 65.828572s29.257143 58.514286 58.514285 58.514286h460.8c36.571429 0 58.514286-29.257143 58.514286-58.514286s-21.942857-65.828571-58.514286-65.828572zM680.228571 138.971429c0-21.942857 14.628571-36.571429 36.571429-36.571429s36.571429 14.628571 36.571429 36.571429V877.714286h-73.142858V138.971429z" p-id="3030"></path><path d="M387.657143 738.742857c21.942857 0 36.571429-14.628571 43.885714-29.257143l146.285714-387.657143c7.314286-14.628571 7.314286-29.257143 0-36.571428-7.314286-14.628571-21.942857-21.942857-36.571428-29.257143H109.714286c-21.942857 0-43.885714 21.942857-43.885715 43.885714s21.942857 43.885714 43.885715 43.885715H365.714286L146.285714 475.428571c-7.314286 7.314286-14.628571 14.628571-21.942857 29.257143 0 14.628571 0 21.942857 7.314286 36.571429 14.628571 14.628571 36.571429 21.942857 58.514286 14.628571l256-146.285714-102.4 263.314286c-7.314286 14.628571-7.314286 21.942857 0 36.571428s14.628571 21.942857 29.257142 21.942857c7.314286 7.314286 7.314286 7.314286 14.628572 7.314286z" p-id="3031"></path></svg>