<?xml version="1.0" standalone="no"?><!DOCTYPE svg PUBLIC "-//W3C//DTD SVG 1.1//EN" "http://www.w3.org/Graphics/SVG/1.1/DTD/svg11.dtd"><svg t="1688553653395" class="icon" viewBox="0 0 1024 1024" version="1.1" xmlns="http://www.w3.org/2000/svg" p-id="15927" xmlns:xlink="http://www.w3.org/1999/xlink" width="128" height="128"><path d="M628.924 671.965h-85.325v-64h65.325V165H175.8v442.965h62.666v64H155.8c-24.262 0-44-19.738-44-44V145c0-24.262 19.738-44 44-44h473.124c24.262 0 44 19.738 44 44v482.965c0 24.262-19.738 44-44 44z" p-id="15928"></path><path d="M870.924 925.965H397.8c-24.262 0-44-19.738-44-44V399c0-24.262 19.738-44 44-44h82.666v64H417.8v442.965h433.124V419h-65.325v-64h85.325c24.262 0 44 19.738 44 44v482.965c0 24.262-19.738 44-44 44z" p-id="15929"></path></svg>