<?xml version="1.0" standalone="no"?><!DOCTYPE svg PUBLIC "-//W3C//DTD SVG 1.1//EN" "http://www.w3.org/Graphics/SVG/1.1/DTD/svg11.dtd"><svg t="1688538558972" class="icon" viewBox="0 0 1024 1024" version="1.1" xmlns="http://www.w3.org/2000/svg" p-id="11049" xmlns:xlink="http://www.w3.org/1999/xlink" width="128" height="128"><path d="M419.151312 838.325204h185.674796v-46.424344h-185.674796v46.424344zM187.074752 559.8243h185.674796v-46.424344H187.074752v46.424344z m232.07656 139.250452h185.674796v-46.424344h-185.674796v46.424344z m-232.07656 0h185.674796v-46.424344H187.074752v46.424344z m0 139.250452h185.674796v-46.424344H187.074752v46.424344z m232.07656-278.500904h185.674796v-46.424344h-185.674796v46.424344z m510.600044-232.07656H94.248644a92.803528 92.803528 0 0 0-92.826108 92.826108v510.577464a92.803528 92.803528 0 0 0 92.826108 92.826108h835.502712a92.803528 92.803528 0 0 0 92.826108-92.826108V420.573848a92.803528 92.803528 0 0 0-92.826108-92.826108z m46.401764 557.001808a92.803528 92.803528 0 0 1-92.826108 92.826108H140.650408a92.803528 92.803528 0 0 1-92.826108-92.826108V466.998192a92.803528 92.803528 0 0 1 92.826108-92.826108H883.327012a92.803528 92.803528 0 0 1 92.826108 92.826108v417.751356z m-162.440044-371.349592a69.636516 69.636516 0 1 0 0 139.273032 69.636516 69.636516 0 0 0 0-139.273032z m0 185.674796a69.636516 69.636516 0 1 0 0 139.273032 69.636516 69.636516 0 0 0 0-139.273032z" p-id="11050"></path></svg>