<?xml version="1.0" standalone="no"?><!DOCTYPE svg PUBLIC "-//W3C//DTD SVG 1.1//EN" "http://www.w3.org/Graphics/SVG/1.1/DTD/svg11.dtd"><svg t="1688555114350" class="icon" viewBox="0 0 1024 1024" version="1.1" xmlns="http://www.w3.org/2000/svg" p-id="25501" xmlns:xlink="http://www.w3.org/1999/xlink" width="128" height="128"><path d="M411.409648 511.948891l23.224854-23.202868 23.20087 23.225253-23.225453 23.202269L411.409648 511.948891zM488.749012 589.3692l23.223854-23.205267 23.203268 23.228251-23.225253 23.199271L488.749012 589.3692zM488.828358 434.610726l23.224254-23.202269 23.202269 23.225253-23.224254 23.201869L488.828358 434.610726zM630.648604 512.059815l-23.224254 23.201869 11.600135 11.612127 23.226253-23.20127c6.447629-6.443631 6.456622-16.762235 0.010993-23.212862l-11.601134-11.610728-11.613126 11.599735L630.648604 512.059815zM381.740764 523.541631l52.849368 52.898335 64.517457-64.448504-64.451502-64.511461-52.901733 52.847769C375.302529 506.771001 375.296533 517.089405 381.740764 523.541631zM475.89053 511.97987l-41.288606 41.249633-41.247035-41.289606 41.288007-41.246235L475.89053 511.97987zM500.329561 642.247348c6.44563 6.452625 16.761636 6.457622 23.210263 0.012991l52.904331-52.848169-64.448504-64.514459-64.516458 64.448504L500.329561 642.247348zM470.693054 589.358207l41.290605-41.247234 41.247035 41.290205-41.289006 41.246235L470.693054 589.358207zM524.900102 512.005852l41.288207-41.246635 11.601134 11.612127-41.288207 41.249633L524.900102 512.005852zM571.33262 499.133579l-12.903252 12.888861 12.89126 12.903851 12.901253-12.889261 11.601134 11.612127 11.612127-11.600735-11.601134-11.612127 23.224254-23.202868-12.888262-12.901653L582.944747 487.532445 571.33262 499.133579zM566.145138 553.298456l11.614126-11.602134 23.199271 23.225253-11.611128 11.601134L566.145138 553.298456zM582.919764 536.537819l11.612127-11.597737 11.601134 11.610728-11.613126 11.603133L582.919764 536.537819zM541.655741 528.781478l11.613126-11.600735 11.600135 11.612727-11.613126 11.600735L541.655741 528.781478zM577.801235 459.159082l11.610128-11.599136 11.603133 11.612127-11.612127 11.598736L577.801235 459.159082zM500.46347 381.739772l-52.904331 52.849368 64.451502 64.51346 64.511461-64.447505-52.848369-52.900733C517.228103 375.302737 506.912098 375.297141 500.46347 381.739772zM553.307841 434.641505l-41.286008 41.248234-41.250232-41.289006 41.290005-41.247634L553.307841 434.641505z" p-id="25502"></path><path d="M414.25432 955.158994c-21.291564 0-41.131313-8.116497-55.864324-22.84651l-74.217281-74.215882 10.024204-10.007215c15.807882-15.775304 24.51398-36.803048 24.51398-59.198064s-8.706097-43.418562-24.51398-59.194066c-15.797289-15.829268-36.819037-24.535365-59.215052-24.535365-22.397814 0-43.419562 8.706097-59.196465 24.515379l-10.045789 10.067174-73.634676-74.233869c-14.891903-14.630081-23.151303-34.328725-23.25983-55.480584-0.110325-21.44546 8.14208-41.567817 23.236845-56.667779L553.841479 92.12633c14.634078-14.907892 34.33692-23.174288 55.498572-23.284613 0.141904 0 0.285806 0 0.423713 0 21.293763 0 41.250232 8.240813 56.244067 23.236246l73.694235 73.697233-10.019207 10.006216c-15.809281 15.776903-24.515379 36.79905-24.515379 59.194466 0 22.397814 8.706097 43.419562 24.515379 59.199063 15.795291 15.82527 36.817038 24.531967 59.212054 24.531967 22.397015 0 43.422759-8.704099 59.196065-24.51338l9.963245-9.983231 74.363781 73.759191c14.666056 14.972449 22.740582 34.913329 22.740582 56.153128 0 21.288566-8.1125 41.128315-22.842713 55.864324L470.40425 932.412416C455.432401 947.078473 435.490921 955.158994 414.25432 955.158994zM323.58939 857.489014l54.811038 54.811038c19.3209 19.3209 52.347708 19.292919 72.15328-0.055962L912.299445 449.980305c19.324898-19.322899 19.296917-52.336716-0.031978-72.141288l-54.729094-54.287793c-19.532757 15.209688-43.440747 23.455697-68.637664 23.455697-0.005996 0 0 0-0.005996 0-29.963685 0-58.09681-11.656697-79.224486-32.821347-21.147862-21.107289-32.797963-49.243813-32.797963-79.209496 0-25.181927 8.23042-49.072929 23.418123-68.594693l-54.29139-54.292789c-9.651456-9.647059-22.510738-14.949464-36.235432-14.949464-0.091938 0-0.183875 0-0.277812 0-13.572798 0.071551-26.174254 5.341978-35.483942 14.845934l-0.105928 0.107927L112.087788 573.384837c-9.70442 9.701422-15.01442 22.666632-14.942869 36.503451 0.068953 13.572798 5.341978 26.174254 14.845934 35.480144l0.142903 0.1479 54.294788 54.737088c19.514769-15.171714 43.390181-23.390141 68.553121-23.390141 29.965683 0 58.102207 11.656097 79.226085 32.821747 21.145663 21.103692 32.80176 49.242813 32.80176 79.206498C347.009711 814.07425 338.779292 837.964252 323.58939 857.489014zM446.772272 807.608633c-12.579471 0-24.253556-4.692818-32.879708-13.21504l-184.35141-184.353408c-8.822019-8.871985-13.663736-20.562059-13.663736-32.941865 0-12.375609 4.841717-24.063685 13.633756-32.907689l314.654864-314.653465c17.869884-17.763556 48.009649-17.760958 65.845557-0.02998l184.327426 184.32143c8.822019 8.872984 13.660738 20.562059 13.660738 32.939867 0 12.379607-4.838719 24.067682-13.632757 32.909687L479.712939 794.333634C471.026828 802.915815 459.349745 807.608633 446.772272 807.608633zM577.117698 244.519008c-4.784756 0-9.573509 1.684258-12.975203 5.05857L249.550988 564.175081c-7.194722 7.237093-7.194722 18.621375 0.02998 25.88445l184.26207 184.261671c4.15918 4.111213 9.333672 4.986619 12.931233 4.986619 3.594563 0 8.768055-0.875406 12.988194-5.046578l314.536144-314.535545c7.2271-7.265074 7.2271-18.647357 0-25.916429l-184.261671-184.261671C586.663226 246.196871 581.892461 244.519008 577.117698 244.519008z" p-id="25503"></path></svg>