<?xml version="1.0" standalone="no"?><!DOCTYPE svg PUBLIC "-//W3C//DTD SVG 1.1//EN" "http://www.w3.org/Graphics/SVG/1.1/DTD/svg11.dtd"><svg t="1688539021949" class="icon" viewBox="0 0 1024 1024" version="1.1" xmlns="http://www.w3.org/2000/svg" p-id="12061" xmlns:xlink="http://www.w3.org/1999/xlink" width="128" height="128"><path d="M287.7 958.6c-61.7 0-111.8-50.2-111.8-111.8v-671c0-61.7 50.2-111.8 111.8-111.8h261c20.6 0 37.3 16.7 37.3 37.3s-16.7 37.3-37.3 37.3h-261c-20.6 0-37.3 16.7-37.3 37.3v671c0 20.5 16.7 37.3 37.3 37.3 20.6 0 37.3 16.7 37.3 37.3 0 20.4-16.7 37.1-37.3 37.1M735.1 958.6H436.8c-20.6 0-37.3-16.7-37.3-37.3 0-20.6 16.7-37.3 37.3-37.3h298.3c20.6 0 37.3-16.7 37.3-37.3V362.1c0-20.6 16.7-37.3 37.3-37.3 20.6 0 37.3 16.7 37.3 37.3v484.6c-0.1 61.7-50.3 111.9-111.9 111.9" p-id="12062"></path><path d="M809.6 399.4H623.2c-61.7 0-111.8-50.1-111.8-111.8V101.1c0-15.1 9.1-28.7 23-34.4 14-5.7 30-2.6 40.6 8.1l261 261c10.7 10.7 13.9 26.7 8.1 40.6-5.8 13.9-19.4 23-34.5 23M586 191.1v96.4c0 20.5 16.7 37.3 37.3 37.3h96.4L586 191.1zM623.2 697.6c0 20.6-16.7 37.3-37.3 37.3H362.3c-20.6 0-37.3-16.7-37.3-37.3 0-20.6 16.7-37.3 37.3-37.3H586c20.5 0 37.2 16.7 37.2 37.3M697.8 548.5c0 20.6-16.7 37.3-37.3 37.3H362.3c-20.6 0-37.3-16.7-37.3-37.3 0-20.6 16.7-37.3 37.3-37.3h298.2c20.6 0 37.3 16.7 37.3 37.3" p-id="12063"></path></svg>