<?xml version="1.0" standalone="no"?><!DOCTYPE svg PUBLIC "-//W3C//DTD SVG 1.1//EN" "http://www.w3.org/Graphics/SVG/1.1/DTD/svg11.dtd"><svg t="1688554566102" class="icon" viewBox="0 0 1024 1024" version="1.1" xmlns="http://www.w3.org/2000/svg" p-id="24246" xmlns:xlink="http://www.w3.org/1999/xlink" width="128" height="128"><path d="M328.96 592a128 128 0 0 1-88.96-36.48L44.16 359.68a128 128 0 0 1 0-178.56L185.6 40.32a128 128 0 0 1 177.92 0l195.84 195.2a128 128 0 0 1 0 178.56l-140.8 141.44a128 128 0 0 1-89.6 36.48z m-54.4-524.8a60.16 60.16 0 0 0-43.52 17.92L89.6 226.56a64 64 0 0 0 0 87.68L285.44 512a64 64 0 0 0 87.68 0L512 368.64a64 64 0 0 0 0-87.68L320 85.12a64 64 0 0 0-45.44-17.92zM749.44 1012.48a128 128 0 0 1-88.96-37.12l-195.84-195.84a128 128 0 0 1 0-177.92l141.44-141.44a128 128 0 0 1 177.92 0l195.84 195.84a128 128 0 0 1 0 177.92l-141.44 141.44a128 128 0 0 1-88.96 37.12z m-54.4-525.44a64 64 0 0 0-44.16 18.56L512 646.4a64 64 0 0 0 0 88.32l195.2 192a64 64 0 0 0 87.68 0l141.44-140.8a64 64 0 0 0 0-87.68L738.56 505.6a64 64 0 0 0-43.52-18.56z" p-id="24247"></path><path d="M679.68 707.2a32.64 32.64 0 0 1-23.04-9.6l-320-320a32 32 0 0 1 45.44-45.44l320 320a32 32 0 0 1-22.4 54.4z" p-id="24248"></path></svg>