<?xml version="1.0" standalone="no"?><!DOCTYPE svg PUBLIC "-//W3C//DTD SVG 1.1//EN" "http://www.w3.org/Graphics/SVG/1.1/DTD/svg11.dtd"><svg t="1688539114635" class="icon" viewBox="0 0 1024 1024" version="1.1" xmlns="http://www.w3.org/2000/svg" p-id="15035" xmlns:xlink="http://www.w3.org/1999/xlink" width="128" height="128"><path d="M511.8 436.4H384.5l127.3-190.9h120.1z" p-id="15036"></path><path d="M383.5 624.9l129.4-254.5h127.3" p-id="15037"></path><path d="M843.6 772.2H180.1c-64.4 0-116.7-52.4-116.7-116.8V214.9c0-64.4 52.4-116.8 116.7-116.8h663.5c64.4 0 116.7 52.4 116.7 116.8v440.5c0.1 64.4-52.3 116.8-116.7 116.8zM180.1 164.9c-27.6 0-50 22.4-50 50v440.5c0 27.6 22.4 50 50 50h663.5c27.6 0 50-22.4 50-50V214.9c0-27.6-22.4-50-50-50H180.1zM798.3 894.9H244.8c-16.9 0-30.8-13.8-30.8-30.8 0-16.9 13.8-30.8 30.8-30.8h553.5c16.9 0 30.8 13.8 30.8 30.8s-13.9 30.8-30.8 30.8z" p-id="15038"></path></svg>