<?xml version="1.0" standalone="no"?><!DOCTYPE svg PUBLIC "-//W3C//DTD SVG 1.1//EN" "http://www.w3.org/Graphics/SVG/1.1/DTD/svg11.dtd"><svg t="1688556415981" class="icon" viewBox="0 0 1025 1024" version="1.1" xmlns="http://www.w3.org/2000/svg" p-id="40841" xmlns:xlink="http://www.w3.org/1999/xlink" width="128.125" height="128"><path d="M291.84 1024c-15.36 0-28.16-5.12-40.96-12.8L89.6 844.8c-7.68-15.36-12.8-30.72-12.8-46.08V197.12c0-71.68 33.28-104.96 104.96-104.96h225.28c15.36 0 30.72 7.68 40.96 23.04s7.68 30.72 0 46.08-23.04 23.04-40.96 23.04H168.96v581.12h97.28c71.68 0 71.68 2.56 71.68 74.24v94.72h442.88V565.76c0-25.6 20.48-46.08 46.08-46.08s46.08 20.48 46.08 46.08v353.28c0 71.68-33.28 104.96-104.96 104.96H291.84z m46.08-381.44c-25.6 0-46.08-20.48-46.08-46.08s20.48-46.08 46.08-46.08H614.4c25.6 0 46.08 20.48 46.08 46.08s-20.48 46.08-46.08 46.08H337.92z m642.56-140.8c-12.8 0-23.04-5.12-33.28-12.8l-81.92-81.92c-84.48 56.32-197.12 46.08-271.36-23.04s-92.16-179.2-43.52-268.8S701.44-17.92 798.72 7.68s166.4 112.64 166.4 215.04c0 43.52-12.8 84.48-35.84 120.32l81.92 81.92c12.8 12.8 17.92 33.28 10.24 48.64-5.12 17.92-23.04 28.16-40.96 28.16z m-235.52-409.6c-71.68 0-130.56 58.88-130.56 130.56s58.88 130.56 130.56 130.56 130.56-58.88 130.56-130.56c-2.56-71.68-58.88-130.56-130.56-130.56zM337.92 458.24c-15.36 0-30.72-7.68-40.96-23.04-7.68-15.36-7.68-30.72 0-46.08 7.68-15.36 23.04-23.04 40.96-23.04h107.52c25.6 0 46.08 20.48 46.08 46.08s-20.48 46.08-46.08 46.08h-107.52z" p-id="40842"></path></svg>