<?xml version="1.0" standalone="no"?><!DOCTYPE svg PUBLIC "-//W3C//DTD SVG 1.1//EN" "http://www.w3.org/Graphics/SVG/1.1/DTD/svg11.dtd"><svg t="1688554600960" class="icon" viewBox="0 0 1024 1024" version="1.1" xmlns="http://www.w3.org/2000/svg" p-id="25266" xmlns:xlink="http://www.w3.org/1999/xlink" width="128" height="128"><path d="M544 396.8V57.6c0-19.2-12.8-32-32-32s-32 12.8-32 32v339.2c-51.2 12.8-89.6 57.6-89.6 115.2s38.4 102.4 89.6 115.2v339.2c0 19.2 12.8 32 32 32s32-12.8 32-32V627.2c51.2-12.8 89.6-57.6 89.6-115.2s-38.4-102.4-89.6-115.2z m0 166.4c-12.8 6.4-19.2 6.4-32 6.4s-19.2-6.4-32-6.4C460.8 556.8 448 531.2 448 512c0-25.6 12.8-44.8 32-51.2 12.8-6.4 19.2-12.8 32-12.8s19.2 6.4 32 6.4c19.2 12.8 32 32 32 57.6 0 19.2-12.8 44.8-32 51.2z m-377.6 38.4V57.6c0-19.2-12.8-32-32-32s-32 12.8-32 32v544c-51.2 12.8-89.6 57.6-89.6 115.2s38.4 102.4 89.6 115.2v134.4c0 19.2 12.8 32 32 32s32-12.8 32-32V832c51.2-12.8 89.6-57.6 89.6-115.2s-38.4-102.4-89.6-115.2z m0 166.4c-6.4 6.4-19.2 6.4-32 6.4s-19.2-6.4-32-6.4c-19.2-12.8-32-32-32-51.2 0-25.6 12.8-44.8 32-51.2 6.4-6.4 19.2-6.4 32-6.4s19.2 6.4 32 6.4c19.2 12.8 32 32 32 51.2 0 19.2-12.8 38.4-32 51.2z m755.2-576V57.6c0-19.2-12.8-32-32-32s-32 12.8-32 32V192c-51.2 12.8-89.6 57.6-89.6 115.2s38.4 102.4 89.6 115.2v544c0 19.2 12.8 32 32 32s32-12.8 32-32V422.4c51.2-12.8 89.6-57.6 89.6-115.2s-38.4-102.4-89.6-115.2z m0 166.4c-6.4 6.4-19.2 6.4-32 6.4s-19.2-6.4-32-6.4c-19.2-12.8-32-32-32-51.2 0-25.6 12.8-44.8 32-51.2 6.4-6.4 19.2-6.4 32-6.4s19.2 6.4 32 6.4c19.2 12.8 32 32 32 51.2 0 25.6-12.8 44.8-32 51.2z" p-id="25267"></path></svg>