<?xml version="1.0" standalone="no"?><!DOCTYPE svg PUBLIC "-//W3C//DTD SVG 1.1//EN" "http://www.w3.org/Graphics/SVG/1.1/DTD/svg11.dtd"><svg t="1688555216928" class="icon" viewBox="0 0 1024 1024" version="1.1" xmlns="http://www.w3.org/2000/svg" p-id="29378" xmlns:xlink="http://www.w3.org/1999/xlink" width="128" height="128"><path d="M511.510528 221.038592c113.639424 0 227.278848-0.012288 340.916224 0.006144 43.528192 0.006144 73.027584 29.589504 73.03168 73.213952 0.012288 146.057216-0.651264 292.120576 0.417792 438.171648 0.3072 42.072064-33.427456 74.835968-74.42432 74.682368-226.592768-0.843776-453.187584-0.395264-679.7824-0.4096-44.265472-0.004096-73.529344-29.341696-73.53344-73.70752-0.016384-146.397184-0.014336-292.796416 0-439.195648 0.004096-42.973184 29.638656-72.740864 72.45824-72.749056 113.639424-0.03072 227.2768-0.012288 340.916224-0.012288z m0.27648 26.136576c-112.637952 0-225.28 0.618496-337.90976-0.423936-29.097984-0.268288-50.223104 20.328448-50.03264 50.057216 0.9216 144.717824 0.90112 289.445888 0.002048 434.161664-0.178176 28.553216 19.43552 50.173952 50.046976 50.087936 225.273856-0.632832 450.551808-0.620544 675.825664-0.008192 30.142464 0.08192 50.241536-20.625408 50.087936-50.096128a41237.27872 41237.27872 0 0 1 0.002048-434.16576c0.16384-30.697472-21.528576-50.286592-50.112512-50.030592-112.62976 1.015808-225.271808 0.417792-337.90976 0.417792z" p-id="29379"></path><path d="M289.949696 520.067072c-50.782208-45.563904-43.472896-110.866432-7.548928-146.020352 38.821888-37.988352 100.048896-37.636096 137.977856 0.636928 35.940352 36.265984 41.535488 100.814848-8.402944 145.455104 4.509696 2.267136 8.677376 4.171776 12.660736 6.402048 53.805056 30.152704 83.959808 75.341824 86.933504 137.562112 0.595968 12.46208-6.823936 17.156096-12.990464 17.94048-6.71744 1.007616-17.750016-3.864576-18.477056-16.45568-1.47456-25.509888-8.97024-48.7424-23.527424-69.761024-30.670848-44.290048-87.482368-64.894976-139.937792-50.638848-51.673088 14.043136-89.810944 59.527168-94.437376 112.635904-0.29696 3.397632-0.403456 6.823936-0.903168 10.192896-1.609728 10.82368-9.754624 15.249408-18.403328 14.338048-5.60128-0.495616-13.862912-4.728832-13.32224-16.529408 2.859008-62.449664 32.47104-108.398592 86.595584-138.964992 4.108288-2.320384 8.472576-4.190208 13.78304-6.793216z m60.514304-9.371648c10.09664-0.884736 21.086208 0.507904 30.12608-3.053568 32.811008-12.926976 49.485824-52.52096 38.088704-86.933504-11.415552-34.471936-48.021504-55.33696-82.724864-47.153152-37.318656 8.802304-60.633088 42.196992-55.427072 80.19968 2.347008 17.133568 10.79296 31.217664 23.420928 43.134976 13.371392 12.617728 29.161472 15.106048 46.516224 13.805568zM722.917376 382.830592c29.648896 0 59.297792-0.038912 88.946688 0.022528 10.174464 0.02048 15.835136 10.090496 15.869952 17.842176 0.03072 6.856704-5.888 16.871424-15.572992 16.87552-59.295744 0.03072-118.593536 0.03072-177.891328 0-9.947136-0.006144-15.955968-9.377792-15.955968-18.950144 0-6.426624 4.542464-15.781888 15.659008-15.785984 29.646848-0.012288 59.295744-0.004096 88.94464-0.004096zM725.338112 532.099072c-29.300736 0-58.599424 0.04096-87.898112-0.024576-10.074112-0.022528-15.48288-9.668608-15.828992-17.973248 0.47104-6.36928 5.500928-16.738304 15.675392-16.744448 57.915392-0.028672 115.83488-0.028672 173.75232 0 10.694656 0.004096 16.685056 10.237952 16.695296 18.221056 0.01024 7.63904-7.221248 16.513024-18.212864 16.51712-28.616704 0.012288-55.564288 0.004096-84.18304 0.004096zM741.804032 611.864576c23.853056 0 47.710208 0.09216 71.563264 0.016384 10.002432-0.032768 14.333952 10.688512 14.36672 17.768448 0.036864 8.134656-5.822464 16.943104-14.268416 16.951296-48.73216 0.04096-97.46432 0.055296-146.19648-0.014336-9.488384-0.014336-15.423488-6.893568-15.47264-17.410048-0.047104-10.614784 5.732352-17.2544 15.374336-17.283072 24.879104-0.079872 49.75616-0.026624 74.633216-0.028672z" p-id="29380"></path></svg>