<?xml version="1.0" standalone="no"?><!DOCTYPE svg PUBLIC "-//W3C//DTD SVG 1.1//EN" "http://www.w3.org/Graphics/SVG/1.1/DTD/svg11.dtd"><svg t="1688555136822" class="icon" viewBox="0 0 1024 1024" version="1.1" xmlns="http://www.w3.org/2000/svg" p-id="25754" xmlns:xlink="http://www.w3.org/1999/xlink" width="128" height="128"><path d="M512 989.866667C248.490667 989.866667 34.133333 775.509333 34.133333 512S248.490667 34.133333 512 34.133333s477.866667 214.357333 477.866667 477.866667-214.357333 477.866667-477.866667 477.866667z m0-904.533334C276.650667 85.333333 85.333333 276.650667 85.333333 512s191.317333 426.666667 426.666667 426.666667 426.666667-191.317333 426.666667-426.666667S747.349333 85.333333 512 85.333333z" p-id="25755"></path><path d="M343.552 688.128c-13.312 0-26.624-3.072-39.082667-9.386667a85.418667 85.418667 0 0 1-46.762666-76.458666V142.677333c0-14.165333 11.434667-25.6 25.6-25.6s25.6 11.434667 25.6 25.6v459.605334c0 13.312 6.997333 24.746667 18.944 30.890666 11.776 5.973333 25.258667 4.949333 36.010666-2.730666l97.792-70.826667a85.5552 85.5552 0 0 1 100.693334 0l97.792 70.826667c10.752 7.850667 24.234667 8.874667 36.010666 2.730666a34.133333 34.133333 0 0 0 18.944-30.890666V142.677333c0-14.165333 11.434667-25.6 25.6-25.6s25.6 11.434667 25.6 25.6v459.605334c0 32.426667-17.92 61.781333-46.762666 76.458666-28.842667 14.677333-63.146667 12.117333-89.429334-6.997333l-97.792-70.826667a34.304 34.304 0 0 0-40.618666 0l-97.792 70.826667c-15.018667 10.922667-32.597333 16.384-50.346667 16.384z" p-id="25756"></path><path d="M422.4 407.210667l-41.984-65.024v65.024h-20.650667v-105.813334h18.432l41.984 64.853334v-64.853334h20.650667v105.813334h-18.432zM465.408 407.210667v-105.813334h69.632v18.432h-48.981333v24.917334h41.813333v18.432h-41.813333v25.770666h48.981333v18.432h-69.632zM645.632 407.210667h-17.237333l-19.456-64.170667-19.456 64.170667h-17.237334l-28.16-105.813334h21.504l16.384 66.730667 19.285334-66.730667h15.530666l19.285334 66.730667 16.554666-66.730667h21.504l-28.501333 105.813334z" p-id="25757"></path></svg>