<?xml version="1.0" standalone="no"?><!DOCTYPE svg PUBLIC "-//W3C//DTD SVG 1.1//EN" "http://www.w3.org/Graphics/SVG/1.1/DTD/svg11.dtd"><svg t="1690340061654" class="icon" viewBox="0 0 1024 1024" version="1.1" xmlns="http://www.w3.org/2000/svg" p-id="5083" xmlns:xlink="http://www.w3.org/1999/xlink" width="200" height="200"><path d="M558.67572 465.32436m-23.266218 0a23.266218 23.266218 0 1 0 46.532436 0 23.266218 23.266218 0 1 0-46.532436 0Z" p-id="5084"></path><path d="M488.877066 535.123014m-23.266218 0a23.266218 23.266218 0 1 0 46.532436 0 23.266218 23.266218 0 1 0-46.532436 0Z" p-id="5085"></path><path d="M272.664102 751.335979a23.242952 23.242952 0 0 0-32.898433 0l-139.597308 139.597308a23.242952 23.242952 0 1 0 32.898433 32.898432l139.597308-139.597308a23.242952 23.242952 0 0 0 0-32.898432zM53.635925 937.465723l-46.532436 46.532436a23.242952 23.242952 0 1 0 32.898432 32.898432l46.532436-46.532436a23.242952 23.242952 0 1 0-32.898432-32.898432zM1000.733862 0h-121.0076c-93.204469 0-180.848313 36.2953-246.761508 102.231762l-276.867995 276.844728a23.242952 23.242952 0 1 0 32.898433 32.898432L665.83992 135.130194a302.716763 302.716763 0 0 1 63.214314-48.161071l207.999989 207.999989a304.322132 304.322132 0 0 1-48.161071 63.214314l-276.867994 276.821462a23.242952 23.242952 0 1 0 32.898432 32.898433l276.844728-276.844729A346.643382 346.643382 0 0 0 1024.00008 144.273818V23.266218a23.266218 23.266218 0 0 0-23.266218-23.266218z m-23.266218 144.273818c0 36.783891-6.840268 72.474269-19.334227 105.931091l-184.338245-184.338246A302.204906 302.204906 0 0 1 879.726262 46.532436H977.467644v97.741382z" p-id="5086"></path><path d="M698.273028 418.791924c51.325277 0 93.064872-41.739595 93.064872-93.064872s-41.739595-93.064872-93.064872-93.064872-93.064872 41.739595-93.064872 93.064872 41.739595 93.064872 93.064872 93.064872z m0-139.597308c25.662638 0 46.532436 20.869798 46.532436 46.532436s-20.869798 46.532436-46.532436 46.532436-46.532436-20.869798-46.532436-46.532436 20.869798-46.532436 46.532436-46.532436zM313.147321 793.494366a23.266218 23.266218 0 0 0-31.223265 10.399999l-46.532436 93.064872a23.266218 23.266218 0 1 0 41.646531 20.823265l46.532436-93.064872a23.289484 23.289484 0 0 0-10.423266-31.223264zM116.640844 791.051413c3.489933 0 7.049664-0.791051 10.376733-2.442953l93.064872-46.532436a23.266218 23.266218 0 0 0-20.823265-41.623264l-93.064872 46.532436A23.266218 23.266218 0 0 0 116.640844 791.051413zM774.888684 588.472452l-46.532436 46.532436A23.196419 23.196419 0 0 0 721.539246 651.454105v26.453689a192.248759 192.248759 0 0 1-46.904696 126.405363l-99.509614-99.509615a23.242952 23.242952 0 0 0-32.898432 0l-13.634004 13.634004a23.266218 23.266218 0 0 1-32.898432 0l-190.131534-190.131533a23.266218 23.266218 0 0 1 0-32.898433l13.634004-13.634003a23.242952 23.242952 0 0 0 0-32.898433L219.686923 349.36553A192.178961 192.178961 0 0 1 346.092286 302.460834H372.545976c6.165548 0 12.098433-2.442953 16.449216-6.817002l46.532436-46.532436a23.242952 23.242952 0 1 0-32.898433-32.898432L362.913761 255.928398h-16.821475a238.664864 238.664864 0 0 0-169.866658 70.357044l-6.258613 6.258612a23.242952 23.242952 0 0 0 0 32.898432l99.951673 99.951673A69.240265 69.240265 0 0 0 252.213096 511.856796c0 18.636241 7.25906 36.178969 20.427739 49.347649l10.283669 10.283668-2.861745 0.953915a163.398649 163.398649 0 0 0-63.586574 39.296642 23.242952 23.242952 0 0 0 0 32.898433l162.863526 162.863526a23.289484 23.289484 0 0 0 32.921699 0 163.32885 163.32885 0 0 0 39.296642-63.563308l0.953915-2.861745 10.283668 10.283669c25.40671 25.429976 69.216999 26.523489 95.810286 2.745413l99.951673 99.951673a23.266218 23.266218 0 0 0 32.898432-0.023266l6.258613-6.258613A238.664864 238.664864 0 0 0 768.071682 677.907794v-16.821475l39.715434-39.715434a23.242952 23.242952 0 1 0-32.898432-32.898433z m-367.466648 140.737353a117.215206 117.215206 0 0 1-13.261744 27.244741l-126.614758-126.591492c8.468903-5.583892 17.659059-10.074272 27.268007-13.28501l24.941386-8.30604 95.996415 95.996415-8.329306 24.941386z" p-id="5087"></path></svg>