<?xml version="1.0" standalone="no"?><!DOCTYPE svg PUBLIC "-//W3C//DTD SVG 1.1//EN" "http://www.w3.org/Graphics/SVG/1.1/DTD/svg11.dtd"><svg t="1688554019129" class="icon" viewBox="0 0 1024 1024" version="1.1" xmlns="http://www.w3.org/2000/svg" p-id="19983" xmlns:xlink="http://www.w3.org/1999/xlink" width="128" height="128"><path d="M539.5 909.1L320.6 784.7c-24.6-14-45.3-34.3-59.8-58.7a163.46 163.46 0 0 1-22.9-80.6l-4.4-253c-0.4-24.2 15.7-45.3 39.2-51.2l247.2-62.4 243.5 53.8c23.5 5.2 40.3 25.7 40.7 49.7l4.5 256.6c1 55.8-26.2 107.7-72.6 138.7L539.5 909.1z m-255-521.3c-1.8 0.4-3 2-2.9 3.8l4.4 253c0.7 40.6 23.1 78.3 58.4 98.3l193.1 109.7 171.9-114.9c32.8-21.9 51.9-58.5 51.3-97.9l-4.5-256.6c0-1.8-1.3-3.3-3-3.7l-232.5-51.4-236.2 59.7z" p-id="19984"></path><path d="M351.3 350.4l-2.7-157c-0.2-14.1 4.7-27.5 14-37.8 6.6-7.3 14.7-12.4 23.8-15.1 25.3-31.2 68.8-47 129.4-47.1h0.4c31.4 0 58.2 3.9 79.7 11.6 19.7 7.1 35.5 17.5 47.2 31 22.2 5.8 38.9 26.5 39.3 51.4l2.7 157-48 0.8-2.7-157c-0.1-3.4-2.1-5.8-3.9-5.8l-13.1 0.2-7.3-10.9c-13.4-20.1-45-30.4-93.8-30.4h-0.4c-48.9 0.1-81.1 11.5-95.7 34.1l-6.9 10.7-12.8 0.2c-0.7 0-1.5 0.4-2.1 1.2-1.1 1.2-1.7 2.9-1.6 4.8l2.7 157-48.2 1.1zM531.6 598c-47.5 0-86.2-38.7-86.2-86.2s38.7-86.2 86.2-86.2 86.2 38.7 86.2 86.2-38.6 86.2-86.2 86.2z m0-132.4c-25.5 0-46.2 20.7-46.2 46.2 0 25.5 20.7 46.2 46.2 46.2 25.5 0 46.2-20.7 46.2-46.2 0-25.5-20.7-46.2-46.2-46.2z" p-id="19985"></path><path d="M533.4 777.5c-11 0-20-9-20-20V579.8c0-11 9-20 20-20s20 9 20 20v177.7c0 11-9 20-20 20z" p-id="19986"></path><path d="M582.1 721.7h-52.8c-8.8 0-15.9-9-15.9-20s7.1-20 15.9-20h52.8c8.8 0 15.9 9 15.9 20s-7.1 20-15.9 20zM582.1 643.6h-52.8c-8.8 0-15.9-9-15.9-20s7.1-20 15.9-20h52.8c8.8 0 15.9 9 15.9 20 0.1 11-7.1 20-15.9 20z" p-id="19987"></path><path d="M513.9 683h-32.1c-7.8 0-14.2-9-14.2-20s6.3-20 14.2-20h32.1c7.8 0 14.2 9 14.2 20s-6.4 20-14.2 20z" p-id="19988"></path></svg>