<?xml version="1.0" standalone="no"?><!DOCTYPE svg PUBLIC "-//W3C//DTD SVG 1.1//EN" "http://www.w3.org/Graphics/SVG/1.1/DTD/svg11.dtd"><svg t="1688553927381" class="icon" viewBox="0 0 1024 1024" version="1.1" xmlns="http://www.w3.org/2000/svg" p-id="17113" xmlns:xlink="http://www.w3.org/1999/xlink" width="128" height="128"><path d="M813.42 418.24H324.07v-95.88c0-103.63 84.3-187.93 187.93-187.93s187.93 84.3 187.93 187.93a36 36 0 0 0 72 0 259.93 259.93 0 1 0-519.86 0v95.88h-41.49a63 63 0 0 0-63 63v415.35a63 63 0 0 0 63 63h602.84a63 63 0 0 0 63-63V481.28a63 63 0 0 0-63-63.04z m0 478.35H210.58V481.28h602.84z" p-id="17114"></path><path d="M398 724.93h78v78a36 36 0 0 0 36 36 36 36 0 0 0 36-36v-78h78a36 36 0 0 0 36-36 36 36 0 0 0-36-36h-78v-78a36 36 0 0 0-36-36 36 36 0 0 0-36 36v78h-78a36 36 0 0 0-36 36 36 36 0 0 0 36 36z" p-id="17115"></path></svg>