<?xml version="1.0" standalone="no"?><!DOCTYPE svg PUBLIC "-//W3C//DTD SVG 1.1//EN" "http://www.w3.org/Graphics/SVG/1.1/DTD/svg11.dtd"><svg t="1688464795790" class="icon" viewBox="0 0 1024 1024" version="1.1" xmlns="http://www.w3.org/2000/svg" p-id="5646" xmlns:xlink="http://www.w3.org/1999/xlink" width="128" height="128"><path d="M916.235556 0H107.764444A80.847111 80.847111 0 0 0 26.917332 80.847111v161.694223A80.847111 80.847111 0 0 0 107.764444 323.388445h808.471112A80.847111 80.847111 0 0 0 997.082668 242.541334v-161.694223A80.847111 80.847111 0 0 0 916.235556 0z m27.139266 242.541334a26.949037 26.949037 0 0 1-26.949037 26.949037H107.764444a26.949037 26.949037 0 0 1-26.949037-26.949037v-161.694223A26.949037 26.949037 0 0 1 107.764444 53.898074h808.471112a26.949037 26.949037 0 0 1 26.949037 26.949037z" p-id="5647"></path><path d="M843.441451 112.932318a45.52802 45.52802 0 1 0 32.402254 13.252585 45.52802 45.52802 0 0 0-32.402254-13.252585z m-142.798191 0a45.52802 45.52802 0 1 0 45.52802 45.52802 45.52802 45.52802 0 0 0-45.52802-45.52802z m-141.720231 18.578983H177.324664a26.949037 26.949037 0 1 0 0 53.898074H558.923029a26.949037 26.949037 0 1 0 0-53.898074z m357.312527 569.163663H107.764444A80.847111 80.847111 0 0 0 26.917332 781.522076v161.503994a80.847111 80.847111 0 0 0 80.847112 80.847111h808.471112a80.847111 80.847111 0 0 0 80.847112-80.847111v-161.694223a80.847111 80.847111 0 0 0-80.847112-80.656883z m27.139266 242.351106a26.949037 26.949037 0 0 1-26.949037 26.949037H107.764444a26.949037 26.949037 0 0 1-26.758809-26.949037v-161.694223a26.949037 26.949037 0 0 1 26.949037-26.949037h808.471113a26.949037 26.949037 0 0 1 26.949037 26.949037z" p-id="5648"></path><path d="M843.441451 813.543873a45.52802 45.52802 0 1 0 32.402254 13.252585 45.52802 45.52802 0 0 0-32.402254-13.252585z m-142.798191 0a45.52802 45.52802 0 1 0 45.52802 45.52802 45.52802 45.52802 0 0 0-45.52802-45.52802z m-141.720231 18.578983H177.324664a26.949037 26.949037 0 1 0 0 53.898074H558.923029a26.949037 26.949037 0 1 0 0-53.898074z m357.312527-481.912193H107.764444A80.847111 80.847111 0 0 0 26.917332 431.057774v161.694223a80.847111 80.847111 0 0 0 80.847112 80.847111h808.471112A80.847111 80.847111 0 0 0 997.082668 592.751997v-161.694223a80.847111 80.847111 0 0 0-80.847112-80.720292z m26.949037 242.541334a26.949037 26.949037 0 0 1-26.949037 26.949037H107.764444a26.949037 26.949037 0 0 1-26.949037-26.949037v-161.694223a26.949037 26.949037 0 0 1 26.949037-26.949037h808.471112a26.949037 26.949037 0 0 1 26.949037 26.949037z" p-id="5649"></path><path d="M843.63168 463.20639a45.52802 45.52802 0 1 0 32.402254 13.252586 45.52802 45.52802 0 0 0-32.402254-13.252586z m-142.798192 0a45.52802 45.52802 0 1 0 45.52802 45.528021 45.52802 45.52802 0 0 0-45.781658-45.528021z m-141.72023 18.578984H177.514893a26.949037 26.949037 0 1 0 0 53.898074h381.598365a26.949037 26.949037 0 1 0 0-53.898074z" p-id="5650"></path></svg>