<?xml version="1.0" standalone="no"?><!DOCTYPE svg PUBLIC "-//W3C//DTD SVG 1.1//EN" "http://www.w3.org/Graphics/SVG/1.1/DTD/svg11.dtd"><svg t="1690339383544" class="icon" viewBox="0 0 1024 1024" version="1.1" xmlns="http://www.w3.org/2000/svg" p-id="2332" xmlns:xlink="http://www.w3.org/1999/xlink" width="200" height="200"><path d="M932.571429 54.857143H91.428571a36.571429 36.571429 0 0 0-36.571428 36.571428v841.142858a36.571429 36.571429 0 0 0 36.571428 36.571428h841.142858a36.571429 36.571429 0 0 0 36.571428-36.571428V91.428571a36.571429 36.571429 0 0 0-36.571428-36.571428z m-45.714286 832H137.142857V137.142857h749.714286v749.714286zM350.646857 560.420571a112.859429 112.859429 0 1 0 112.932572 112.932572v-48.420572H560.274286v48.420572a112.859429 112.859429 0 1 0 112.932571-112.859429h-48.493714V463.579429h48.493714A112.859429 112.859429 0 1 0 560.274286 350.72v48.493714H463.579429v-48.493714a112.859429 112.859429 0 1 0-112.932572 112.859429h48.420572V560.274286h-48.420572v0.146285z m48.420572 112.932572a48.493714 48.493714 0 1 1-48.420572-48.420572h48.420572v48.420572z m225.865142-322.706286a48.493714 48.493714 0 1 1 48.420572 48.420572h-48.420572v-48.420572z m0 274.285714h48.420572a48.493714 48.493714 0 1 1-48.420572 48.420572v-48.420572zM463.506286 463.506286h96.841143v96.841143H463.579429V463.579429z m-112.859429-64.365715a48.493714 48.493714 0 1 1 48.420572-48.493714v48.420572h-48.420572z" p-id="2333"></path></svg>