<?xml version="1.0" standalone="no"?><!DOCTYPE svg PUBLIC "-//W3C//DTD SVG 1.1//EN" "http://www.w3.org/Graphics/SVG/1.1/DTD/svg11.dtd"><svg t="1690509728130" class="icon" viewBox="0 0 1024 1024" version="1.1" xmlns="http://www.w3.org/2000/svg" p-id="4868" xmlns:xlink="http://www.w3.org/1999/xlink" width="200" height="200"><path d="M311.13728 622.51008v-36.28544H189.76256c-8.3456 0-12.93824-5.41696-13.76256-16.26624 0.82432-10.83904 5.83168-16.68096 15.01696-17.52064h267.75552c16.68096 10.84928 17.08544 22.10816 1.2544 33.78688H347.4176v51.30752c0.81408 23.34208-20.864 30.4384-65.06496 21.26336-10.01472-2.50368-15.44192-8.3456-16.26112-17.52064 0.8192-9.18528 5.82656-14.16704 15.01696-15.00672 0.8192 0.83968 2.50368 1.24416 5.00736 1.24416 16.6656 1.66912 25.02144 0.00512 25.02144-5.00224zM191.01696 376.02304h267.75552c7.50592 0.8448 11.6736 6.69184 12.51328 17.52064-0.83968 10.84928-5.00736 16.26112-12.51328 16.26112H381.19424v13.76256h51.30752c13.33248 0 20.0192 5.43744 20.0192 16.26112v42.54208c-0.8448 12.51328-7.50592 18.7648-20.0192 18.7648H216.0384c-15.01184 0.8448-22.10816-5.00736-21.26848-17.5104v-40.03328c-0.8448-13.3376 5.42208-20.02432 18.7648-20.02432h55.05536V409.8048H191.01696c-8.3456 0-12.51328-5.41696-12.51328-16.26112 0-10.8288 4.16768-16.68096 12.51328-17.52064z m-1.2544 252.7488c0.8192-0.82432 5.82656-4.16256 15.01696-10.0096 20.01408-14.1824 31.27808-21.67296 33.78176-22.52288 9.16992-4.15744 17.08544-2.50368 23.77216 5.00736 5.00736 8.35072 3.75296 15.85664-3.75296 22.528-8.3456 5.82144-25.45152 17.0752-51.29728 33.78176-10.8544 5.00736-19.2 3.31776-25.02144-5.01248-4.18816-10.01472-1.68448-17.95584 7.5008-23.77216z m22.52288-117.61664h223.96928c15.01696 10.00448 15.01696 19.6096 0 28.7744H211.03104c-7.5008 0-11.25888-4.5824-11.25888-13.76256 0.82432-9.16992 5.01248-14.17216 12.51328-15.01184z m16.26624-57.55904v16.27136h40.0384v-16.27136h-40.0384z m75.07456-30.02368h40.0384v-13.76256h-40.0384v13.76256z m0 45.04064h40.0384v-15.01696h-40.0384v15.01696z m130.1248 183.92576c-33.37216-16.6912-51.72736-26.69056-55.05536-30.0288-7.5008-6.66112-8.7552-14.17216-3.74784-22.52288 5.00736-7.51104 12.51328-9.56928 22.51776-6.25664 15.83616 6.69696 34.19136 16.26624 55.05536 28.77952 10.0096 5.84192 12.51328 13.76256 7.50592 23.77216-6.68672 9.17504-15.44192 11.26912-26.27584 6.25664zM381.19424 468.61312h37.54496v-15.01696h-37.54496v15.01696z m0 0M556.12928 490.92608h300.9024v51.62496h-300.9024zM556.12928 604.51328h300.9024v51.6352h-300.9024zM556.12928 379.91424h300.9024v51.63008h-300.9024z" p-id="4869"></path><path d="M935.05024 877.0816H88.94464c-48.512 0-87.9872-39.47008-87.9872-87.99232V234.9056c0-48.512 39.47008-87.9872 87.9872-87.9872h846.1056c48.52224 0 87.99232 39.47008 87.99232 87.9872v554.18368c0 48.52224-39.47008 87.99232-87.99232 87.99232zM88.94464 198.6816c-19.97824 0-36.22912 16.24576-36.22912 36.224v554.18368a36.27008 36.27008 0 0 0 36.22912 36.22912h846.1056a36.27008 36.27008 0 0 0 36.22912-36.22912V234.9056c0-19.97824-16.25088-36.224-36.22912-36.224H88.94464z m0 0" p-id="4870"></path></svg>