<?xml version="1.0" standalone="no"?><!DOCTYPE svg PUBLIC "-//W3C//DTD SVG 1.1//EN" "http://www.w3.org/Graphics/SVG/1.1/DTD/svg11.dtd"><svg t="1690509691696" class="icon" viewBox="0 0 1024 1024" version="1.1" xmlns="http://www.w3.org/2000/svg" p-id="3488" xmlns:xlink="http://www.w3.org/1999/xlink" width="200" height="200"><path d="M122.88 256h61.44c16.9984 0 30.72-13.7216 30.72-30.72s-13.7216-30.72-30.72-30.72H122.88c-16.9984 0-30.72 13.7216-30.72 30.72s13.7216 30.72 30.72 30.72zM175.104 396.0832c-6.144-6.144-14.1312-9.0112-22.3232-9.0112-7.9872-0.2048-16.1792 2.8672-22.3232 9.0112l-52.224 52.224c-12.0832 12.0832-12.0832 31.5392 0 43.4176 5.9392 5.9392 13.9264 9.0112 21.7088 9.0112s15.7696-3.072 21.7088-9.0112l0.2048-0.2048v80.896c0 16.9984 13.7216 30.72 30.72 30.72s30.72-13.7216 30.72-30.72V491.52l0.2048 0.2048c5.9392 5.9392 13.9264 9.0112 21.7088 9.0112s15.7696-3.072 21.7088-9.0112c12.0832-12.0832 12.0832-31.5392 0-43.4176l-51.8144-52.224zM901.12 102.4h-61.44c-67.7888 0-122.88 55.0912-122.88 122.88v40.96h-126.976c-25.3952 0-48.3328 12.9024-61.44 34.6112-13.1072 21.7088-13.9264 47.9232-2.048 70.4512 0.4096 1.024 1.024 1.8432 1.6384 2.6624L716.8 656.7936V798.72c0 67.7888 55.0912 122.88 122.88 122.88h61.44c67.7888 0 122.88-55.0912 122.88-122.88V225.28c0-67.7888-55.0912-122.88-122.88-122.88z m-184.5248 443.392l-136.192-204.1856c-1.6384-4.096-0.2048-7.3728 0.8192-9.0112 1.024-1.8432 3.6864-4.9152 8.8064-4.9152H716.8v218.112zM962.56 798.72c0 33.792-27.648 61.44-61.44 61.44h-61.44c-33.792 0-61.44-27.648-61.44-61.44V225.28c0-33.792 27.648-61.44 61.44-61.44h61.44c33.792 0 61.44 27.648 61.44 61.44v573.44z" p-id="3489"></path><path d="M839.68 256h61.44c16.9984 0 30.72-13.7216 30.72-30.72s-13.7216-30.72-30.72-30.72h-61.44c-16.9984 0-30.72 13.7216-30.72 30.72s13.7216 30.72 30.72 30.72zM891.904 396.0832c-6.144-6.144-14.1312-9.0112-22.3232-9.0112-7.9872-0.2048-16.1792 2.8672-22.3232 9.0112l-52.224 52.224c-12.0832 12.0832-12.0832 31.5392 0 43.4176 5.9392 5.9392 13.9264 9.0112 21.7088 9.0112s15.7696-3.072 21.7088-9.0112l0.2048-0.2048v80.896c0 16.9984 13.7216 30.72 30.72 30.72s30.72-13.7216 30.72-30.72V491.52l0.2048 0.2048c5.9392 5.9392 13.9264 9.0112 21.7088 9.0112s15.7696-3.072 21.7088-9.0112c12.0832-12.0832 12.0832-31.5392 0-43.4176l-51.8144-52.224zM433.9712 266.24H307.2v-40.96c0-67.7888-55.0912-122.88-122.88-122.88H122.88C55.0912 102.4 0 157.4912 0 225.28v573.44c0 67.7888 55.0912 122.88 122.88 122.88h61.44c67.7888 0 122.88-55.0912 122.88-122.88v-142.336l188.416-282.4192c0.6144-0.8192 1.2288-1.8432 1.6384-2.6624 11.8784-22.3232 11.0592-48.7424-2.048-70.4512-13.1072-21.7088-36.0448-34.6112-61.2352-34.6112zM245.76 798.72c0 33.792-27.648 61.44-61.44 61.44H122.88c-33.792 0-61.44-27.648-61.44-61.44V225.28c0-33.792 27.648-61.44 61.44-61.44h61.44c33.792 0 61.44 27.648 61.44 61.44v573.44z m197.632-457.1136L307.2 545.792V327.68h126.7712c5.12 0 7.5776 3.072 8.8064 4.9152 1.024 1.6384 2.2528 5.12 0.6144 9.0112z" p-id="3490"></path></svg>