<?xml version="1.0" standalone="no"?><!DOCTYPE svg PUBLIC "-//W3C//DTD SVG 1.1//EN" "http://www.w3.org/Graphics/SVG/1.1/DTD/svg11.dtd"><svg t="1690509664756" class="icon" viewBox="0 0 1024 1024" version="1.1" xmlns="http://www.w3.org/2000/svg" p-id="2424" xmlns:xlink="http://www.w3.org/1999/xlink" width="200" height="200"><path d="M802.304 641.28c-14.1312 0-25.6-11.4688-25.6-25.6v-59.7504c0-14.1312 11.4688-25.6 25.6-25.6s25.6 11.4688 25.6 25.6v59.7504c0 14.1824-11.4688 25.6-25.6 25.6z" p-id="2425"></path><path d="M850.688 77.2096H173.312c-59.2896 0-107.52 48.2304-107.52 107.52v165.5808c0 59.2896 48.2304 107.52 107.52 107.52h22.784v412.672c0 46.0288 37.4272 83.456 83.456 83.456h464.9472c46.0288 0 83.456-37.4272 83.456-83.456v-166.4512c0-14.1312-11.4688-25.6-25.6-25.6s-25.6 11.4688-25.6 25.6v166.4512c0 17.7664-14.4896 32.256-32.256 32.256H279.552c-17.7664 0-32.256-14.4896-32.256-32.256V273.5616h529.408v211.0976c0 14.1312 11.4688 25.6 25.6 25.6s25.6-11.4688 25.6-25.6v-26.7776h22.784c59.2896 0 107.52-48.2304 107.52-107.52V184.7296c0-59.2384-48.2304-107.52-107.52-107.52z m56.32 273.152c0 31.0784-25.2416 56.32-56.32 56.32h-22.784v-158.72c0-14.1312-11.4688-25.6-25.6-25.6H221.696c-14.1312 0-25.6 11.4688-25.6 25.6v158.72h-22.784c-31.0784 0-56.32-25.2416-56.32-56.32V184.7296c0-31.0784 25.2416-56.32 56.32-56.32h677.376c31.0784 0 56.32 25.2416 56.32 56.32v165.632z" p-id="2426"></path><path d="M620.4928 645.1712h-77.312v-48.896h77.312c14.1312 0 25.6-11.4688 25.6-25.6s-11.4688-25.6-25.6-25.6h-59.5968l58.7776-67.84a25.6 25.6 0 0 0-2.56-36.096c-10.6496-9.2672-26.8288-8.0896-36.096 2.56l-63.9488 73.7792-70.656-77.3632a25.57952 25.57952 0 0 0-36.1472-1.6384 25.57952 25.57952 0 0 0-1.6384 36.1472l64.3072 70.4H405.7088c-14.1312 0-25.6 11.4688-25.6 25.6s11.4688 25.6 25.6 25.6h86.272V645.12H405.7088c-14.1312 0-25.6 11.4688-25.6 25.6s11.4688 25.6 25.6 25.6h86.272v64.7168c0 14.1312 11.4688 25.6 25.6 25.6s25.6-11.4688 25.6-25.6V696.32h77.312c14.1312 0 25.6-11.4688 25.6-25.6s-11.4688-25.5488-25.6-25.5488z" p-id="2427"></path></svg>