<?xml version="1.0" standalone="no"?><!DOCTYPE svg PUBLIC "-//W3C//DTD SVG 1.1//EN" "http://www.w3.org/Graphics/SVG/1.1/DTD/svg11.dtd"><svg t="1690509720270" class="icon" viewBox="0 0 1024 1024" version="1.1" xmlns="http://www.w3.org/2000/svg" p-id="4713" xmlns:xlink="http://www.w3.org/1999/xlink" width="200" height="200"><path d="M966 479.872c0.736 10.608 1.12 21.328 1.12 32.128 0 251.36-203.776 455.104-455.12 455.104a453.008 453.008 0 0 1-227.952-61.12l27.584-17.2A424.8 424.8 0 0 0 512 938.672c235.648 0 426.672-191.04 426.672-426.672 0-4.976-0.096-9.936-0.256-14.88l27.584-17.248zM878.368 132.128l135.664 217.104a56.896 56.896 0 0 1-18.096 78.4L224 909.952a56.896 56.896 0 0 1-78.4-18.096L9.984 674.768a56.896 56.896 0 0 1 18.096-78.4L800 114.048a56.896 56.896 0 0 1 78.4 18.096zM576.736 825.008l-4.448 32.752L596.752 880l-32.528 5.888-13.6 30.144-15.632-29.12-32.864-3.616 22.848-23.872-6.72-32.368 29.776 14.352 28.704-16.4zM816.896 137.12l-1.84 1.056L43.136 620.48a28.448 28.448 0 0 0-10.096 37.36l1.056 1.84L169.744 876.8a28.448 28.448 0 0 0 37.36 10.096l1.84-1.056L980.864 403.52a28.448 28.448 0 0 0 10.096-37.36l-1.056-1.84L854.256 147.2a28.448 28.448 0 0 0-37.36-10.096z m-116.784 620.736l12.528 30.592 32.32 7.024-25.232 21.36 3.296 32.896-28.112-17.392-30.256 13.312 7.84-32.112-22-24.672 32.96-2.464 16.656-28.544z m84.592-164.672C749.76 710.72 640.896 796.448 512 796.448c-15.856 0-31.408-1.296-46.56-3.792l39.616-24.752c2.304 0.064 4.624 0.096 6.944 0.096 103.616 0 192.864-61.568 233.136-150.112l39.568-24.72z m-472.768-85.888l58.064 92.912-133.952 83.712 36.208 57.968c4.896 7.808 11.232 9.28 19.056 4.4l107.904-67.424c3.472-2.176 5.92-5.52 7.328-10.016 1.12-4.944-4.912-18.976-17.44-41.92l26.48-6.896c14.544 29.552 21.024 48.144 19.664 55.632-2.24 8.032-7.76 15.104-16.176 20.96l-120.704 75.44c-18.672 11.664-33.904 7.584-46.112-11.952l-70.272-112.448 22.592-14.112 17.904 28.656 110.928-69.328-30.928-49.488-142.624 89.12-13.568-21.712 165.648-103.504z m480.48 148.448l26.16 20.24 31.472-10.08-11.152 31.12 19.296 26.832-33.04-0.992-19.552 26.64-9.264-31.728-31.376-10.352 27.312-18.624 0.16-33.056z m-347.296-143.52l51.536 82.496 3.888 0.896c8.528 2.528 16.224 3.744 22.976 3.44 8.336-0.672 18.976-4.896 32.064-12.48 12.72-7.648 27.616-16.64 44.32-27.104 10.88-6.768 21.6-13.776 32.88-20.832a979.68 979.68 0 0 0 25.024-17.44l8.32 25.888-49.92 31.2c-11.952 7.456-25.12 15.376-39.136 23.84-14.032 8.48-26.352 14.352-36.832 17.888-10.304 2.816-21.024 2.56-32.16-0.736-5.344-1.792-9.024-1.904-11.424-0.416-4.336 2.72-5.76 16.88-4.4 43.2l-26.336-4.96c0-24.16 2.624-41.2 8.32-51.392l-37.168-59.488-28.64 17.904-13.04-20.848 49.728-31.056z m90.832-148.832l53.712 85.968-86.4 54 30.24 48.4a395.12 395.12 0 0 0 30.624-31.2l17.968 17.152c-14.528 15.408-33.824 33.808-57.6 54.704l-16.928-16c4-5.2 4.704-9.856 2.256-13.76l-82.208-131.568 108.32-67.696zM512 56.896c83.056 0 160.928 22.24 227.952 61.12L712.368 135.2A424.8 424.8 0 0 0 512 85.328C276.352 85.328 85.328 276.368 85.328 512c0 4.992 0.096 9.952 0.256 14.896l-27.584 17.232A461.76 461.76 0 0 1 56.88 512C56.896 260.64 260.672 56.896 512 56.896z m68.112 403.248l24.16 2.416a228.4 228.4 0 0 1-6.24 28.656c14.016 1.2 27.536 3.008 40.672 5.68l-3.52 25.76c-30.976-7.52-66.336-10.496-106.224-9.12l3.184-23.408a481.808 481.808 0 0 1 42.272-0.464c2.72-10.144 4.784-19.888 5.696-29.52z m137.856-6.448l22.816 4.16c-6.72 21.12-17.792 42.512-32.944 64.656l-24.8-9.248c15.744-20.704 27.552-40.464 34.928-59.568z m-347.312 6.016c21.376 2.336 40.592 6.032 57.632 11.088l-6.24 26.24c-15.04-5.712-34.304-9.968-57.792-12.8z m469.632-114.144l12.064 19.328-80.544 50.336 17.376 27.776c9.216 14.768 6.24 26.896-8.752 36.256l-19.968 12.48-17.04-17.12c6.48-3.152 12.624-6.384 18.048-9.76 5.2-3.264 6.272-7.84 2.88-13.28l-14.24-22.8-85.328 53.328-12.08-19.328 187.584-117.216z m-293.792 83.968l-64.256 40.16 8.544 13.664 64.256-40.16-8.544-13.664z m-20.208-32.352l-64.256 40.16 8.544 13.664 64.256-40.16-8.544-13.664z m275.76-67.872l11.68 18.672-145.68 91.04-11.68-18.688 145.68-91.024zM512 227.552c15.856 0 31.408 1.296 46.56 3.792l-39.616 24.752A260.848 260.848 0 0 0 512 256c-103.632 0-192.864 61.568-233.152 150.128l-39.552 24.736C274.224 313.296 383.088 227.552 512 227.552zM807.584 397.12c25.552-2.08 47.936-2.496 67.52-1.136l-5.952 25.76c-17.264-2.512-39.616-3.024-67.376-1.072z m-41.568-178.096l12.224 19.52-63.184 39.488 7.872 12.592 48.192-30.112 32.56 52.096-164.56 102.832-32.56-52.096 48.192-30.112-7.872-12.592-63.168 39.472-12.208-19.536 194.512-121.552z m-99.872 132.432L639.68 368l9.76 15.632 26.496-16.56-9.76-15.632zM218.4 274.512l9.264 31.728 31.376 10.352-27.312 18.624-0.16 33.056-26.144-20.24-31.472 10.08 11.152-31.12-19.296-26.832 33.04 0.992 19.552-26.64z m494.432 47.76l-25.184 15.744 9.76 15.632 25.184-15.744-9.76-15.632z m47.968-29.968l-26.48 16.544 9.76 15.632 26.496-16.544-9.76-15.632z m-67.232-0.848l-25.184 15.728 7.856 12.592 25.184-15.728-7.856-12.592zM300.96 174.288l28.112 17.392 30.256-13.312-7.84 32.112 22 24.672-32.96 2.464-16.656 28.544-12.528-30.592-32.32-7.024 25.232-21.36-3.296-32.896z m172.384-66.32l15.648 29.12 32.864 3.616-22.848 23.872 6.72 32.368-29.776-14.352-28.704 16.4 4.448-32.752L427.248 144l32.528-5.888 13.6-30.144z" p-id="4714"></path></svg>