<?xml version="1.0" standalone="no"?><!DOCTYPE svg PUBLIC "-//W3C//DTD SVG 1.1//EN" "http://www.w3.org/Graphics/SVG/1.1/DTD/svg11.dtd"><svg t="1690510913263" class="icon" viewBox="0 0 1024 1024" version="1.1" xmlns="http://www.w3.org/2000/svg" p-id="25249" xmlns:xlink="http://www.w3.org/1999/xlink" width="200" height="200"><path d="M864 469.333333H768v-96c0-17.066667-14.933333-32-32-32h-21.333333c-17.066667 0-32 14.933333-32 32V469.333333h-96c-17.066667 0-32 14.933333-32 32v21.333334c0 17.066667 14.933333 32 32 32H682.666667v96c0 17.066667 14.933333 32 32 32h21.333333c17.066667 0 32-14.933333 32-32V554.666667h96c17.066667 0 32-14.933333 32-32v-21.333334c0-17.066667-14.933333-32-32-32zM864 128h-704C142.933333 128 128 142.933333 128 160v21.333333c0 17.066667 14.933333 32 32 32h704c17.066667 0 32-14.933333 32-32v-21.333333c0-17.066667-14.933333-32-32-32zM864 810.666667h-704c-17.066667 0-32 14.933333-32 32v21.333333c0 17.066667 14.933333 32 32 32h704c17.066667 0 32-14.933333 32-32v-21.333333c0-17.066667-14.933333-32-32-32zM160 448h320c17.066667 0 32-14.933333 32-32v-21.333333c0-17.066667-14.933333-32-32-32h-320c-17.066667 0-32 14.933333-32 32v21.333333c0 17.066667 14.933333 32 32 32zM160 661.333333h320c17.066667 0 32-14.933333 32-32v-21.333333c0-17.066667-14.933333-32-32-32h-320c-17.066667 0-32 14.933333-32 32v21.333333c0 17.066667 14.933333 32 32 32z" p-id="25250"></path></svg>