<?xml version="1.0" standalone="no"?><!DOCTYPE svg PUBLIC "-//W3C//DTD SVG 1.1//EN" "http://www.w3.org/Graphics/SVG/1.1/DTD/svg11.dtd"><svg t="1690510889968" class="icon" viewBox="0 0 1024 1024" version="1.1" xmlns="http://www.w3.org/2000/svg" p-id="24223" xmlns:xlink="http://www.w3.org/1999/xlink" width="200" height="200"><path d="M717.7 593.2c-34.2-28.2-72.6-50.2-114.1-65.4-8-2.9-16.2-5.6-24.4-8 22.1-11.3 42.6-26.2 60.6-44.2 45.5-45.5 70.6-106.1 70.6-170.4s-25.1-124.9-70.6-170.4C594.3 89.1 533.8 64 469.4 64s-124.9 25.1-170.5 70.6c-45.5 45.5-70.6 106.1-70.6 170.4s25.1 124.9 70.6 170.4c18.1 18.1 38.5 32.9 60.6 44.2-14.3 4.2-28.3 9.2-42.1 15-46.5 19.7-88.2 47.8-124.1 83.6-35.8 35.8-64 77.6-83.7 124.1C89.3 790.6 79 841.7 79 894.4c0 17.7 14.3 32 32 32s32-14.3 32-32c0-180 146.4-326.4 326.4-326.4 75.6 0 149.3 26.5 207.6 74.5 13.6 11.2 33.8 9.3 45-4.3 11.3-13.6 9.4-33.8-4.3-45zM292.3 305c0-97.6 79.4-177 177.1-177 97.6 0 177.1 79.4 177.1 177s-79.4 177-177.1 177c-97.6 0.1-177.1-79.3-177.1-177z" p-id="24224"></path><path d="M956.7 533.5c-36.9-30.5-79.1-53.8-124.2-69 38.4-39.6 57.2-92.2 57.2-159.5 0-109.7-74.1-205.6-180.1-233.3-17.1-4.5-34.6 5.8-39 22.9-4.5 17.1 5.8 34.6 22.9 39C771.3 154 825.7 224.4 825.7 305c0 66.8-21.7 109.9-70.5 139.5-11.4 7-16.9 19.9-15 32.4-2.7 17.2 8.8 33.4 26 36.5 54.8 9.8 106.6 33.8 149.8 69.4 6 4.9 13.2 7.3 20.4 7.3 9.2 0 18.4-4 24.7-11.6 11.1-13.6 9.2-33.8-4.4-45z" p-id="24225"></path><path d="M847 768V640h-64v128H655v64h128v128h64V832h128v-64z" p-id="24226"></path></svg>