<?xml version="1.0" standalone="no"?><!DOCTYPE svg PUBLIC "-//W3C//DTD SVG 1.1//EN" "http://www.w3.org/Graphics/SVG/1.1/DTD/svg11.dtd"><svg t="1699585892489" class="icon" viewBox="0 0 1024 1024" version="1.1" xmlns="http://www.w3.org/2000/svg" p-id="5587" xmlns:xlink="http://www.w3.org/1999/xlink" width="200" height="200"><path d="M545.731765 535.491765C545.731765 535.491765 545.731765 535.491765 545.731765 535.491765l-79.510588 0c-6.625882 0-12.047059-5.421176-12.047059-12.047059 0-6.625882 5.421176-12.047059 12.047059-12.047059 0 0 0 0 0 0l79.510588 0c6.625882 0 12.047059 5.421176 12.047059 12.047059C557.778824 530.070588 552.357647 535.491765 545.731765 535.491765z" p-id="5588"></path><path d="M506.578824 56.621176c4.818824 0 10.24 0 15.058824 0.602353l0 65.656471c0 31.322353 25.901176 57.223529 57.223529 57.223529 31.322353 0 57.223529-25.901176 57.223529-57.223529l0-27.105882c60.837647 40.357647 101.195294 107.218824 106.616471 180.705882 0.602353 8.432941 3.011765 16.263529 6.625882 23.491765L263.228235 299.971765c3.614118-7.228235 6.023529-15.058824 6.625882-23.491765 5.421176-74.089412 46.381176-142.155294 108.423529-182.512941l0 28.310588c0 31.322353 25.901176 57.223529 57.223529 57.223529 31.322353 0 57.223529-25.901176 57.223529-57.223529L492.724706 57.223529C497.543529 56.621176 501.76 56.621176 506.578824 56.621176M506.578824 20.48c-10.24 0-21.082353 0.602353-31.322353 1.807059-10.24 1.204706-18.070588 10.24-18.070588 21.082353l0 79.510588c0 11.444706-9.637647 21.082353-21.082353 21.082353-11.444706 0-21.082353-9.637647-21.082353-21.082353l0-54.211765c0-12.047059-10.24-21.082353-21.082353-21.082353-3.011765 0-6.625882 0.602353-9.637647 2.409412-83.727059 42.164706-142.757647 125.891765-149.985882 224.075294-0.602353 10.842353-9.637647 19.877647-21.082353 19.877647l-24.094118 0c-11.444706 0-21.082353 9.637647-21.082353 21.082353l0 0c0 11.444706 9.637647 21.082353 21.082353 21.082353l634.88 0c11.444706 0 21.082353-9.637647 21.082353-21.082353l0 0c0-11.444706-9.637647-21.082353-21.082353-21.082353l-24.094118 0c-11.444706 0-20.48-8.432941-21.082353-19.877647-7.228235-97.581176-65.054118-180.705882-147.576471-223.472941-3.011765-1.807059-6.625882-2.409412-9.637647-2.409412-10.842353 0-21.082353 9.035294-21.082353 21.082353l0 53.609412c0 11.444706-9.637647 21.082353-21.082353 21.082353-11.444706 0-21.082353-9.637647-21.082353-21.082353L558.381176 43.369412c0-10.842353-7.830588-19.877647-18.070588-21.082353C528.865882 21.082353 517.421176 20.48 506.578824 20.48L506.578824 20.48z" p-id="5589"></path><path d="M981.835294 915.576471c-31.322353-162.635294-181.910588-292.141176-375.265882-326.475294 74.691765-42.164706 126.494118-129.505882 126.494118-230.701176L279.491765 358.4c0 101.195294 51.2 188.536471 126.494118 230.701176C212.630588 622.832941 62.042353 752.941176 30.72 915.576471c-6.625882 33.129412 21.082353 63.849412 57.825882 63.849412l835.463529 0C960.752941 979.425882 988.461176 948.705882 981.835294 915.576471zM318.042353 394.541176l375.868235 0c-15.058824 104.809412-93.364706 184.922353-187.934118 184.922353S333.101176 499.350588 318.042353 394.541176zM943.284706 934.851765c-4.216471 5.421176-11.444706 8.432941-18.672941 8.432941L88.545882 943.284706c-7.830588 0-14.456471-3.011765-18.672941-8.432941-2.409412-2.409412-4.818824-7.228235-3.614118-12.649412 16.263529-83.124706 68.668235-160.225882 146.974118-216.244706 81.317647-57.825882 185.524706-89.750588 292.743529-89.750588s212.028235 31.924706 292.743529 89.750588c78.908235 56.018824 131.312941 133.12 146.974118 216.244706C947.501176 927.623529 945.091765 932.442353 943.284706 934.851765z" p-id="5590"></path></svg>